# xmcd
#
# Track frame offsets:
#	150
#	22360
#	36863
#	53713
#	66808
#	88538
#	107863
#	121615
#	137460
#	153075
#	179033
#	190038
#	203778
#	218603
#	239140
#	262650
#	278988
#	294745
#	308920
#	329333
#
# Disc length: 4683 seconds
#
# Revision: 2
# Processed by: cddbd v1.5.1PL2 Copyright (c) Steve Scherf et al.
# Submitted via: EasyCDDAExtractor 9.0.0.1
#
DISCID=26124914
DTITLE=Various Artist - Metal Magic and Skok Paris - Go For the Thoat
DYEAR=1993
DGENRE=Heavy Metal
TTITLE0=Pantera - Ride the Rocket
TTITLE1=Pantera - Ill Be Alright
TTITLE2=Pantera - Tell Me If You Want It
TTITLE3=Pantera - Last Lover
TTITLE4=Pantera - Biggest Part of Me
TTITLE5=Pantera - Metal Magic
TTITLE6=Pantera - Widow Maker
TTITLE7=Pantera - Nothing On (But the Radio)
TTITLE8=Pantera - Sad Lover
TTITLE9=Pantera - Rock Out
TTITLE10=Shok Paris - Marsielles De Sade
TTITLE11=Shok Paris - Battle Cry
TTITLE12=Shok Paris - Burn It Down
TTITLE13=Shok Paris - On A Wing And A Prayer
TTITLE14=Shok Paris - Chosen One
TTITLE15=Shok Paris - Caged Tiger
TTITLE16=Shok Paris - Never Say Why
TTITLE17=Shok Paris - Go For the Throat
TTITLE18=Shok Paris - Can't Fight Evil
TTITLE19=Shok Paris - Run But Don't Hide
EXTD=YEAR: 1983
EXTT0=
EXTT1=
EXTT2=
EXTT3=
EXTT4=
EXTT5=
EXTT6=
EXTT7=
EXTT8=
EXTT9=
EXTT10=
EXTT11=
EXTT12=
EXTT13=
EXTT14=
EXTT15=
EXTT16=
EXTT17=
EXTT18=
EXTT19=
PLAYORDER=
